# File created by Blade
# Date/Time:  Wed Jan 21 19:03:07 2015
# Frame Rate: 120.000 fps
#------------------------------------------------------
:FULLY-SPECIFIED
:DEGREES
2367
root -3.937883 29.760484 -12.422841 108.613315 1.463409 0.023546
RightUpLeg -110.780564 -24.686546 4.814134
RightLeg -5.654710 -0.000000 0.000000
RightFoot -3.794149 -14.759326 39.392766
RightToeBase 22.372406 -0.000000 -0.000000
LeftUpLeg -118.870938 18.635922 -15.131837
LeftLeg -3.903565 -0.000000 0.000000
LeftFoot 6.811235 2.112010 -18.636038
LeftToeBase 8.722152 -0.000000 -0.000000
Spine 1.239211 -0.877529 -5.446981
RightShoulder -6.759430 24.998467 -39.105880
RightArm 9.702901 -16.102343 76.528059
RightForeArm 27.181486 -0.000000 73.758897
RightHand 13.223102 -0.000000 -13.771575
RightHandThumb1 -24.326973 -0.000000 -32.862282
LeftShoulder -2.429238 -0.064177 24.512249
LeftArm 23.977633 -16.985728 -71.192008
LeftForeArm 7.062525 -0.000000 50.667481
LeftHand -19.311969 -0.000000 -6.550319
LeftHandThumb1 -26.253704 0.000000 33.147579
Head -43.294532 -15.648669 8.877316
2368
root -3.918045 29.760264 -12.456526 108.087084 1.271838 -0.015248
RightUpLeg -110.430473 -24.699358 4.539874
RightLeg -5.513672 -0.000000 0.000000
RightFoot -3.628125 -14.851338 39.138027
RightToeBase 22.264515 -0.000000 -0.000000
LeftUpLeg -118.361204 18.727389 -15.123809
LeftLeg -3.893179 -0.000000 0.000000
LeftFoot 6.823282 2.147778 -18.689224
LeftToeBase 8.700080 -0.000000 -0.000000
Spine 0.617114 -0.949840 -5.324585
RightShoulder -6.780281 24.783056 -38.993425
RightArm 9.080555 -16.105841 76.496467
RightForeArm 26.855273 -0.000000 72.635956
RightHand 13.713655 -0.000000 -14.641703
RightHandThumb1 -24.326973 -0.000000 -32.862282
LeftShoulder -2.590946 0.283866 24.656007
LeftArm 23.698078 -16.458827 -71.631330
LeftForeArm 7.299927 0.000000 50.801172
LeftHand -19.346933 0.000000 -6.510652
LeftHandThumb1 -26.253704 0.000000 33.147579
Head -42.469659 -15.130012 8.623850
2369
root -3.899640 29.760646 -12.486096 107.554925 1.145688 -0.086027
RightUpLeg -110.052118 -24.633729 4.369857
RightLeg -5.432858 -0.000000 0.000000
RightFoot -3.411140 -14.908554 38.942371
RightToeBase 22.191314 -0.000000 -0.000000
LeftUpLeg -117.843604 18.948916 -14.958055
LeftLeg -3.842030 -0.000000 0.000000
LeftFoot 6.722027 2.238738 -18.940449
LeftToeBase 8.838516 -0.000000 -0.000000
Spine -0.018164 -0.901506 -5.123740
RightShoulder -6.874873 24.553156 -38.965665
RightArm 8.485580 -16.057363 76.551682
RightForeArm 26.619633 -0.000000 71.489333
RightHand 13.742653 0.000000 -14.404240
RightHandThumb1 -24.326973 -0.000000 -32.862282
LeftShoulder -2.648954 0.289887 24.785014
LeftArm 23.179869 -16.018492 -72.093898
LeftForeArm 7.688872 -0.000000 50.808802
LeftHand -19.240195 -0.000000 -6.765120
LeftHandThumb1 -26.253704 0.000000 33.147579
Head -41.629302 -14.642674 8.195525
2370
root -3.877519 29.762221 -12.517055 107.021011 1.024839 -0.118821
RightUpLeg -109.650418 -24.627742 4.171059
RightLeg -5.363498 -0.000000 0.000000
RightFoot -3.209805 -15.008529 38.782096
RightToeBase 22.110545 -0.000000 -0.000000
LeftUpLeg -117.352254 19.129868 -14.770253
LeftLeg -3.710965 -0.000000 0.000000
LeftFoot 6.630284 2.277319 -19.124286
LeftToeBase 8.927348 -0.000000 -0.000000
Spine -0.654532 -0.836389 -4.906266
RightShoulder -6.917406 24.187823 -38.937416
RightArm 7.918146 -15.893418 76.570123
RightForeArm 26.619198 0.000000 70.491091
RightHand 13.748762 -0.000000 -14.335190
RightHandThumb1 -24.326973 -0.000000 -32.862282
LeftShoulder -2.624631 0.385855 24.915454
LeftArm 22.772907 -15.692250 -72.568888
LeftForeArm 8.181411 0.000000 50.840356
LeftHand -19.104881 0.000000 -7.069769
LeftHandThumb1 -26.253704 0.000000 33.147579
Head -40.780076 -14.252678 7.801427
2371
root -3.857132 29.765740 -12.542014 106.435581 0.959231 -0.145197
RightUpLeg -109.218333 -24.546316 4.122826
RightLeg -5.320650 -0.000000 0.000000
RightFoot -2.981819 -15.066238 38.556767
RightToeBase 22.104502 -0.000000 -0.000000
LeftUpLeg -116.847530 19.284777 -14.576732
LeftLeg -3.549063 -0.000000 0.000000
LeftFoot 6.558692 2.294548 -19.234891
LeftToeBase 8.944469 -0.000000 -0.000000
Spine -1.233327 -0.873251 -4.616731
RightShoulder -7.017308 24.039037 -38.942466
RightArm 7.385744 -15.885943 76.661587
RightForeArm 26.505686 -0.000000 69.296561
RightHand 14.007557 -0.000000 -14.781339
RightHandThumb1 -24.326973 -0.000000 -32.862282
LeftShoulder -2.662967 0.383168 24.961999
LeftArm 22.221981 -15.352626 -72.866355
LeftForeArm 8.611506 0.000000 50.874971
LeftHand -18.933232 0.000000 -7.196444
LeftHandThumb1 -26.253704 0.000000 33.147579
Head -39.918702 -13.745486 7.296985
2372
root -3.839674 29.771162 -12.566403 105.900501 0.842058 -0.240625
RightUpLeg -108.814644 -24.408478 3.976014
RightLeg -5.285396 -0.000000 0.000000
RightFoot -2.747455 -15.205901 38.259059
RightToeBase 22.032189 -0.000000 -0.000000
LeftUpLeg -116.443336 19.457060 -14.525773
LeftLeg -3.341992 -0.000000 0.000000
LeftFoot 6.451670 2.248156 -19.331653
LeftToeBase 8.986155 -0.000000 -0.000000
Spine -1.874701 -0.802831 -4.459911
RightShoulder -7.160619 23.741031 -38.858799
RightArm 7.000970 -15.867738 76.659430
RightForeArm 26.508512 0.000000 68.087619
RightHand 14.302332 -0.000000 -15.034212
RightHandThumb1 -24.326973 -0.000000 -32.862282
LeftShoulder -2.633863 0.389755 25.092873
LeftArm 21.687813 -15.010045 -73.113497
LeftForeArm 8.747358 0.000000 50.977525
LeftHand -18.890171 -0.000000 -7.408129
LeftHandThumb1 -26.253704 0.000000 33.147579
Head -39.071246 -13.274138 7.072002
2373
root -3.819395 29.778650 -12.589962 105.361863 0.731076 -0.287937
RightUpLeg -108.431114 -24.300167 3.887171
RightLeg -5.228589 -0.000000 0.000000
RightFoot -2.558930 -15.334964 38.152068
RightToeBase 21.923368 -0.000000 -0.000000
LeftUpLeg -116.018889 19.579160 -14.444272
LeftLeg -3.131488 -0.000000 0.000000
LeftFoot 6.380625 2.197917 -19.343723
LeftToeBase 8.952837 -0.000000 -0.000000
Spine -2.508381 -0.842283 -4.279988
RightShoulder -7.194972 23.311314 -38.745094
RightArm 6.781060 -15.751964 76.626471
RightForeArm 26.561679 -0.000000 66.866758
RightHand 14.786623 -0.000000 -15.083288
RightHandThumb1 -24.326973 -0.000000 -32.862282
LeftShoulder -2.588296 0.471655 25.267893
LeftArm 21.210669 -14.907791 -73.536357
LeftForeArm 9.042803 -0.000000 51.021285
LeftHand -18.699796 -0.000000 -7.505686
LeftHandThumb1 -26.253704 0.000000 33.147579
Head -38.177693 -12.772004 6.832545
